<svg xmlns="http://www.w3.org/2000/svg" width="256" height="256" viewBox="0 0 256 256" fill="none">
  <defs>
    <linearGradient id="coin_g" x1="40" y1="28" x2="212" y2="228" gradientUnits="userSpaceOnUse">
      <stop stop-color="#FDE68A"/>
      <stop offset="0.35" stop-color="#F59E0B"/>
      <stop offset="0.7" stop-color="#F97316"/>
      <stop offset="1" stop-color="#FB7185"/>
    </linearGradient>
    <radialGradient id="coin_h" cx="0" cy="0" r="1" gradientUnits="userSpaceOnUse" gradientTransform="translate(88 72) rotate(55) scale(140)">
      <stop stop-color="#FFFFFF" stop-opacity="0.95"/>
      <stop offset="0.35" stop-color="#FFFFFF" stop-opacity="0.35"/>
      <stop offset="1" stop-color="#FFFFFF" stop-opacity="0"/>
    </radialGradient>
    <filter id="shadow" x="0" y="0" width="256" height="256" filterUnits="userSpaceOnUse" color-interpolation-filters="sRGB">
      <feDropShadow dx="0" dy="10" stdDeviation="10" flood-color="#000000" flood-opacity="0.35"/>
    </filter>
  </defs>

  <!-- Outer coin -->
  <g filter="url(#shadow)">
    <circle cx="128" cy="128" r="92" fill="url(#coin_g)"/>
    <circle cx="128" cy="128" r="92" fill="url(#coin_h)"/>
    <circle cx="128" cy="128" r="92" stroke="#FFFFFF" stroke-opacity="0.35" stroke-width="6"/>
    <circle cx="128" cy="128" r="78" stroke="#1F2937" stroke-opacity="0.22" stroke-width="6"/>
  </g>

  <!-- Inner emblem -->
  <g>
    <path
      d="M136.5 74.5c-19.7 0-35.7 16-35.7 35.7 0 10.8 4.8 20.5 12.4 27.1-7.7 4.7-12.4 13.1-12.4 22.5 0 15 12.1 27.1 27.1 27.1 9.4 0 17.8-4.8 22.5-12.4 6.6 7.6 16.3 12.4 27.1 12.4 19.7 0 35.7-16 35.7-35.7 0-17.6-12.8-32.3-29.6-35.2 3.6-5.2 5.7-11.5 5.7-18.3 0-17.6-14.3-31.9-31.9-31.9-8.4 0-16 3.2-21.7 8.5-5.7-5.3-13.3-8.5-21.2-8.5Z"
      fill="#0B0F14"
      fill-opacity="0.25"
    />
    <path
      d="M128 84c-14.7 0-26.6 11.9-26.6 26.6 0 8 3.5 15.3 9.2 20.2-8.4 3.2-14.4 11.3-14.4 20.8 0 12.3 10 22.3 22.3 22.3 9.5 0 17.6-6 20.8-14.4 4.9 5.7 12.2 9.2 20.2 9.2 14.7 0 26.6-11.9 26.6-26.6 0-14.7-11.9-26.6-26.6-26.6-2.2 0-4.3.3-6.3.8 2.1-2.8 3.3-6.2 3.3-9.9 0-9.3-7.5-16.8-16.8-16.8-4.7 0-8.9 1.9-12 5-3-3.1-7.1-5-11.7-5Z"
      fill="#0B0F14"
      fill-opacity="0.55"
    />
    <path
      d="M126.3 116.3c-1.3 1.3-1.3 3.4 0 4.7l8.7 8.7c1.3 1.3 3.4 1.3 4.7 0l16.2-16.2c1.3-1.3 1.3-3.4 0-4.7-1.3-1.3-3.4-1.3-4.7 0l-13.9 13.9-6.4-6.4c-1.3-1.3-3.4-1.3-4.7 0Z"
      fill="#FFFFFF"
      fill-opacity="0.9"
    />
  </g>
</svg>


